<?xml version="1.0" encoding="UTF-8"?>
<svg width="210px" height="40px" viewBox="0 0 210 40" version="1.1" xmlns="http://www.w3.org/2000/svg" xmlns:xlink="http://www.w3.org/1999/xlink">
    <title>namelogo</title>
    <g id="namelogo" stroke="none" stroke-width="1" fill="none" fill-rule="evenodd">
        <g id="Group" transform="translate(5.000000, 3.000000)">
            <path d="M41.6,28.24 C42.064,28.24 42.52,28.204 42.968,28.132 C43.416,28.06 43.86,27.956 44.3,27.82 C44.74,27.684 45.168,27.512 45.584,27.304 C45.984,27.112 46.228,26.804 46.316,26.38 C46.404,25.956 46.288,25.544 45.968,25.144 C45.744,24.856 45.468,24.688 45.14,24.64 C44.812,24.592 44.48,24.648 44.144,24.808 C43.744,25.016 43.328,25.16 42.896,25.24 C42.464,25.32 42.032,25.36 41.6,25.36 C40.816,25.36 40.088,25.244 39.416,25.012 C38.744,24.78 38.16,24.424 37.664,23.944 C37.168,23.464 36.78,22.864 36.5,22.144 C36.22,21.424 36.08,20.576 36.08,19.6 C36.08,18.768 36.204,18.008 36.452,17.32 C36.7,16.632 37.064,16.036 37.544,15.532 C38.024,15.028 38.604,14.64 39.284,14.368 C39.964,14.096 40.736,13.96 41.6,13.96 C42.064,13.96 42.508,14.008 42.932,14.104 C43.356,14.2 43.76,14.336 44.144,14.512 C44.48,14.672 44.812,14.736 45.14,14.704 C45.468,14.672 45.736,14.512 45.944,14.224 C46.248,13.856 46.364,13.448 46.292,13 C46.22,12.552 45.976,12.224 45.56,12.016 C44.968,11.712 44.336,11.48 43.664,11.32 C42.992,11.16 42.304,11.08 41.6,11.08 C40.352,11.08 39.2,11.292 38.144,11.716 C37.088,12.14 36.172,12.732 35.396,13.492 C34.62,14.252 34.02,15.152 33.596,16.192 C33.172,17.232 32.96,18.368 32.96,19.6 C32.96,21.024 33.192,22.276 33.656,23.356 C34.12,24.436 34.756,25.336 35.564,26.056 C36.372,26.776 37.292,27.32 38.324,27.688 C39.356,28.056 40.448,28.24 41.6,28.24 Z M56.5157348,28.24 C57.7317348,28.24 58.8317348,27.96 59.8157348,27.4 C60.7997348,26.84 61.5837348,26.06 62.1677348,25.06 C62.7517348,24.06 63.0437348,22.904 63.0437348,21.592 C63.0437348,20.28 62.7517348,19.124 62.1677348,18.124 C61.5837348,17.124 60.7997348,16.34 59.8157348,15.772 C58.8317348,15.204 57.7317348,14.92 56.5157348,14.92 C55.2997348,14.92 54.1997348,15.204 53.2157348,15.772 C52.2317348,16.34 51.4477348,17.124 50.8637348,18.124 C50.2797348,19.124 49.9877348,20.28 49.9877348,21.592 C49.9877348,22.904 50.2797348,24.06 50.8637348,25.06 C51.4477348,26.06 52.2317348,26.84 53.2157348,27.4 C54.1997348,27.96 55.2997348,28.24 56.5157348,28.24 Z M56.5157348,25.6 C55.8437348,25.6 55.2317348,25.432 54.6797348,25.096 C54.1277348,24.76 53.6877348,24.292 53.3597348,23.692 C53.0317348,23.092 52.8677348,22.392 52.8677348,21.592 C52.8677348,20.776 53.0317348,20.068 53.3597348,19.468 C53.6877348,18.868 54.1277348,18.4 54.6797348,18.064 C55.2317348,17.728 55.8437348,17.56 56.5157348,17.56 C57.1877348,17.56 57.7997348,17.728 58.3517348,18.064 C58.9037348,18.4 59.3437348,18.868 59.6717348,19.468 C59.9997348,20.068 60.1637348,20.776 60.1637348,21.592 C60.1637348,22.392 59.9997348,23.092 59.6717348,23.692 C59.3437348,24.292 58.9037348,24.76 58.3517348,25.096 C57.7997348,25.432 57.1877348,25.6 56.5157348,25.6 Z M72.7274695,28.24 C73.3354695,28.24 73.8994695,28.14 74.4194695,27.94 C74.9394695,27.74 75.3914695,27.496 75.7754695,27.208 C76.0058695,27.0352 76.2074695,26.86096 76.3802695,26.68528 L76.496,26.561 L76.5018445,26.6888125 C76.5273445,26.9880625 76.6293445,27.2490625 76.8078445,27.4718125 L76.9034695,27.58 C77.1754695,27.86 77.5194695,28 77.9354695,28 C78.3514695,28 78.6954695,27.86 78.9674695,27.58 C79.2394695,27.3 79.3754695,26.952 79.3754695,26.536 L79.3754695,26.536 L79.3754695,11.704 C79.3754695,11.272 79.2394695,10.92 78.9674695,10.648 C78.6954695,10.376 78.3514695,10.24 77.9354695,10.24 C77.5194695,10.24 77.1754695,10.38 76.9034695,10.66 C76.6314695,10.94 76.4954695,11.288 76.4954695,11.704 L76.4954695,11.704 L76.495,16.417 L76.4194695,16.3453333 C76.3594695,16.2915556 76.2968029,16.2378889 76.2314695,16.1843333 L76.0274695,16.024 C75.6034695,15.704 75.1034695,15.44 74.5274695,15.232 C73.9514695,15.024 73.3194695,14.92 72.6314695,14.92 C71.5594695,14.92 70.5834695,15.204 69.7034695,15.772 C68.8234695,16.34 68.1234695,17.124 67.6034695,18.124 C67.0834695,19.124 66.8234695,20.28 66.8234695,21.592 C66.8234695,22.888 67.0834695,24.036 67.6034695,25.036 C68.1234695,26.036 68.8314695,26.82 69.7274695,27.388 C70.6234695,27.956 71.6234695,28.24 72.7274695,28.24 Z M73.0874695,25.6 C72.3994695,25.6 71.7914695,25.424 71.2634695,25.072 C70.7354695,24.72 70.3234695,24.24 70.0274695,23.632 C69.7314695,23.024 69.5834695,22.344 69.5834695,21.592 C69.5834695,20.824 69.7314695,20.136 70.0274695,19.528 C70.3234695,18.92 70.7354695,18.44 71.2634695,18.088 C71.7914695,17.736 72.3994695,17.56 73.0874695,17.56 C73.7914695,17.56 74.4074695,17.736 74.9354695,18.088 C75.4634695,18.44 75.8754695,18.92 76.1714695,19.528 C76.4674695,20.136 76.6154695,20.824 76.6154695,21.592 C76.6154695,22.344 76.4674695,23.024 76.1714695,23.632 C75.8754695,24.24 75.4634695,24.72 74.9354695,25.072 C74.4074695,25.424 73.7914695,25.6 73.0874695,25.6 Z M89.3952043,32.8 C90.5472043,32.8 91.5872043,32.608 92.5152043,32.224 C93.4432043,31.84 94.1832043,31.212 94.7352043,30.34 C95.2872043,29.468 95.5632043,28.296 95.5632043,26.824 L95.5632043,26.824 L95.5632043,16.624 C95.5632043,16.208 95.4272043,15.86 95.1552043,15.58 C94.8832043,15.3 94.5392043,15.16 94.1232043,15.16 C93.7072043,15.16 93.3632043,15.3 93.0912043,15.58 C92.8192043,15.86 92.6832043,16.208 92.6832043,16.624 L92.6832043,16.624 L92.6832043,22.768 C92.6832043,23.376 92.5792043,23.892 92.3712043,24.316 C92.1632043,24.74 91.8672043,25.06 91.4832043,25.276 C91.0992043,25.492 90.6272043,25.6 90.0672043,25.6 C89.2512043,25.6 88.6152043,25.388 88.1592043,24.964 C87.7032043,24.54 87.4752043,23.808 87.4752043,22.768 L87.4752043,22.768 L87.4752043,16.624 C87.4752043,16.208 87.3392043,15.86 87.0672043,15.58 C86.7952043,15.3 86.4512043,15.16 86.0352043,15.16 C85.6192043,15.16 85.2752043,15.3 85.0032043,15.58 C84.7312043,15.86 84.5952043,16.208 84.5952043,16.624 L84.5952043,16.624 L84.5952043,23.632 C84.5952043,24.528 84.7712043,25.324 85.1232043,26.02 C85.4752043,26.716 85.9672043,27.26 86.5992043,27.652 C87.2312043,28.044 87.9712043,28.24 88.8192043,28.24 C89.5392043,28.24 90.1792043,28.152 90.7392043,27.976 C91.2992043,27.8 91.7832043,27.54 92.1912043,27.196 C92.3272043,27.0813333 92.4556487,26.9564444 92.5765376,26.8213333 L92.707,26.665 L92.7072043,26.92 C92.7072043,27.6453333 92.609229,28.2347654 92.4132783,28.6882963 L92.3352043,28.852 C92.0872043,29.324 91.7192043,29.66 91.2312043,29.86 C90.7432043,30.06 90.1312043,30.16 89.3952043,30.16 C88.8512043,30.16 88.3712043,30.076 87.9552043,29.908 C87.5392043,29.74 87.2032043,29.616 86.9472043,29.536 C86.5952043,29.408 86.2592043,29.428 85.9392043,29.596 C85.6192043,29.764 85.3872043,30.08 85.2432043,30.544 C85.1312043,30.896 85.1672043,31.228 85.3512043,31.54 C85.5352043,31.852 85.8672043,32.112 86.3472043,32.32 C86.7152043,32.48 87.1872043,32.6 87.7632043,32.68 C88.3392043,32.76 88.8832043,32.8 89.3952043,32.8 Z M111.210674,28 C111.626674,28 111.962674,27.86 112.218674,27.58 C112.474674,27.3 112.602674,26.952 112.602674,26.536 L112.602674,26.536 L112.602,22 L116.778674,22 C117.518229,22 118.216698,21.8072099 118.874081,21.4216296 L119.118674,21.268 C119.846674,20.78 120.434674,20.128 120.882674,19.312 C121.330674,18.496 121.554674,17.592 121.554674,16.6 C121.554674,15.592 121.330674,14.68 120.882674,13.864 C120.434674,13.048 119.846674,12.4 119.118674,11.92 C118.390674,11.44 117.610674,11.2 116.778674,11.2 L116.778674,11.2 L111.306674,11.2 C110.890674,11.2 110.542674,11.34 110.262674,11.62 C109.982674,11.9 109.842674,12.248 109.842674,12.664 L109.842674,12.664 L109.842674,26.536 C109.842674,26.952 109.970674,27.3 110.226674,27.58 C110.482674,27.86 110.810674,28 111.210674,28 Z M112.602,13.96 L116.778674,13.96 C117.082674,13.96 117.378674,14.084 117.666674,14.332 C117.954674,14.58 118.194674,14.904 118.386674,15.304 C118.578674,15.704 118.674674,16.136 118.674674,16.6 C118.674674,17.048 118.578674,17.476 118.386674,17.884 C118.194674,18.292 117.954674,18.624 117.666674,18.88 C117.378674,19.136 117.082674,19.264 116.778674,19.264 L116.778674,19.264 L112.602,19.264 L112.602,13.96 Z M131.862409,28.24 C132.662409,28.24 133.438409,28.108 134.190409,27.844 C134.942409,27.58 135.526409,27.272 135.942409,26.92 C136.390409,26.568 136.614409,26.176 136.614409,25.744 C136.614409,25.424 136.498409,25.144 136.266409,24.904 C136.034409,24.664 135.742409,24.544 135.390409,24.544 C135.134409,24.544 134.862409,24.616 134.574409,24.76 C134.398409,24.856 134.202409,24.972 133.986409,25.108 C133.770409,25.244 133.486409,25.36 133.134409,25.456 C132.782409,25.552 132.310409,25.6 131.718409,25.6 C131.078409,25.6 130.474409,25.444 129.906409,25.132 C129.338409,24.82 128.874409,24.364 128.514409,23.764 C128.314409,23.4306667 128.169964,23.0565926 128.081075,22.6417778 L128.069,22.576 L135.990409,22.576 C136.319551,22.576 136.613429,22.4878367 136.872041,22.3115102 L136.998409,22.216 C137.286409,21.976 137.438409,21.664 137.454409,21.28 C137.454409,20.416 137.290409,19.6 136.962409,18.832 C136.634409,18.064 136.190409,17.388 135.630409,16.804 C135.070409,16.22 134.426409,15.76 133.698409,15.424 C132.970409,15.088 132.198409,14.92 131.382409,14.92 C130.326409,14.92 129.326409,15.192 128.382409,15.736 C127.438409,16.28 126.674409,17.06 126.090409,18.076 C125.506409,19.092 125.214409,20.32 125.214409,21.76 C125.214409,22.992 125.482409,24.096 126.018409,25.072 C126.554409,26.048 127.322409,26.82 128.322409,27.388 C129.322409,27.956 130.502409,28.24 131.862409,28.24 Z M134.382,20.176 L128.093,20.176 L128.122909,20.0335 C128.139409,19.961 128.157284,19.890625 128.176534,19.822375 L128.238409,19.624 C128.414409,19.112 128.654409,18.704 128.958409,18.4 C129.262409,18.096 129.622409,17.88 130.038409,17.752 C130.454409,17.624 130.902409,17.56 131.382409,17.56 C131.878409,17.56 132.346409,17.668 132.786409,17.884 C133.226409,18.1 133.594409,18.392 133.890409,18.76 C134.186409,19.128 134.350409,19.544 134.382409,20.008 L134.382409,20.008 L134.382,20.176 Z M147.234143,28.24 C147.842143,28.24 148.406143,28.14 148.926143,27.94 C149.446143,27.74 149.898143,27.496 150.282143,27.208 C150.512543,27.0352 150.714143,26.86096 150.886943,26.68528 L151.003,26.56 L151.008518,26.6888125 C151.034018,26.9880625 151.136018,27.2490625 151.314518,27.4718125 L151.410143,27.58 C151.682143,27.86 152.026143,28 152.442143,28 C152.858143,28 153.202143,27.86 153.474143,27.58 C153.746143,27.3 153.882143,26.952 153.882143,26.536 L153.882143,26.536 L153.882143,16.384 C153.882143,15.952 153.746143,15.6 153.474143,15.328 C153.202143,15.056 152.858143,14.92 152.442143,14.92 C152.026143,14.92 151.682143,15.06 151.410143,15.34 C151.138143,15.62 151.002143,15.968 151.002143,16.384 L151.002143,16.384 L151.002,16.417 L150.926143,16.3453333 C150.866143,16.2915556 150.803477,16.2378889 150.738143,16.1843333 L150.534143,16.024 C150.110143,15.704 149.610143,15.44 149.034143,15.232 C148.458143,15.024 147.826143,14.92 147.138143,14.92 C146.066143,14.92 145.090143,15.204 144.210143,15.772 C143.330143,16.34 142.630143,17.124 142.110143,18.124 C141.590143,19.124 141.330143,20.28 141.330143,21.592 C141.330143,22.888 141.590143,24.036 142.110143,25.036 C142.630143,26.036 143.338143,26.82 144.234143,27.388 C145.130143,27.956 146.130143,28.24 147.234143,28.24 Z M147.594143,25.6 C146.906143,25.6 146.298143,25.424 145.770143,25.072 C145.242143,24.72 144.830143,24.24 144.534143,23.632 C144.238143,23.024 144.090143,22.344 144.090143,21.592 C144.090143,20.824 144.238143,20.136 144.534143,19.528 C144.830143,18.92 145.242143,18.44 145.770143,18.088 C146.298143,17.736 146.906143,17.56 147.594143,17.56 C148.298143,17.56 148.914143,17.736 149.442143,18.088 C149.970143,18.44 150.382143,18.92 150.678143,19.528 C150.974143,20.136 151.122143,20.824 151.122143,21.592 C151.122143,22.344 150.974143,23.024 150.678143,23.632 C150.382143,24.24 149.970143,24.72 149.442143,25.072 C148.914143,25.424 148.298143,25.6 147.594143,25.6 Z M160.541878,28 C160.957878,28 161.301878,27.86 161.573878,27.58 C161.845878,27.3 161.981878,26.952 161.981878,26.536 L161.981878,26.536 L161.981878,20.848 C161.981878,20.272 162.057878,19.772 162.209878,19.348 C162.361878,18.924 162.561878,18.568 162.809878,18.28 C163.057878,17.992 163.329878,17.78 163.625878,17.644 C163.921878,17.508 164.213878,17.44 164.501878,17.44 C164.821878,17.44 165.105878,17.496 165.353878,17.608 C165.601878,17.72 165.877878,17.776 166.181878,17.776 C166.501878,17.776 166.797878,17.66 167.069878,17.428 C167.341878,17.196 167.477878,16.816 167.477878,16.288 C167.477878,15.92 167.313878,15.6 166.985878,15.328 C166.657878,15.056 166.253878,14.92 165.773878,14.92 C165.373878,14.92 164.973878,14.968 164.573878,15.064 C164.173878,15.16 163.797878,15.308 163.445878,15.508 C163.093878,15.708 162.777878,15.956 162.497878,16.252 C162.329878,16.4296 162.180598,16.62304 162.050038,16.83232 L161.981,16.951 L161.981878,16.624 C161.981878,16.26 161.877753,15.9480625 161.669503,15.6881875 L161.573878,15.58 C161.301878,15.3 160.957878,15.16 160.541878,15.16 C160.125878,15.16 159.781878,15.3 159.509878,15.58 C159.237878,15.86 159.101878,16.208 159.101878,16.624 L159.101878,16.624 L159.101878,26.536 C159.101878,26.952 159.237878,27.3 159.509878,27.58 C159.781878,27.86 160.125878,28 160.541878,28 Z M176.561613,28.24 C177.409613,28.24 178.197613,28.14 178.925613,27.94 C179.653613,27.74 180.241613,27.476 180.689613,27.148 C181.137613,26.82 181.361613,26.456 181.361613,26.056 C181.361613,25.672 181.249613,25.348 181.025613,25.084 C180.801613,24.82 180.481613,24.688 180.065613,24.688 C179.713613,24.688 179.449613,24.76 179.273613,24.904 C179.097613,25.048 178.897613,25.184 178.673613,25.312 C178.481613,25.408 178.241613,25.48 177.953613,25.528 C177.665613,25.576 177.321613,25.6 176.921613,25.6 C176.201613,25.6 175.565613,25.424 175.013613,25.072 C174.461613,24.72 174.029613,24.244 173.717613,23.644 C173.405613,23.044 173.249613,22.36 173.249613,21.592 C173.249613,20.808 173.401613,20.116 173.705613,19.516 C174.009613,18.916 174.445613,18.44 175.013613,18.088 C175.581613,17.736 176.273613,17.56 177.089613,17.56 C177.249613,17.56 177.493613,17.588 177.821613,17.644 C178.149613,17.7 178.393613,17.776 178.553613,17.872 C178.729613,17.968 178.881613,18.072 179.009613,18.184 C179.137613,18.296 179.285613,18.388 179.453613,18.46 C179.621613,18.532 179.833613,18.568 180.089613,18.568 C180.457613,18.568 180.737613,18.428 180.929613,18.148 C181.121613,17.868 181.217613,17.568 181.217613,17.248 C181.217613,16.768 181.029613,16.356 180.653613,16.012 C180.277613,15.668 179.749613,15.4 179.069613,15.208 C178.389613,15.016 177.593613,14.92 176.681613,14.92 C175.449613,14.92 174.357613,15.204 173.405613,15.772 C172.453613,16.34 171.709613,17.124 171.173613,18.124 C170.637613,19.124 170.369613,20.28 170.369613,21.592 C170.369613,22.84 170.621613,23.968 171.125613,24.976 C171.629613,25.984 172.345613,26.78 173.273613,27.364 C174.201613,27.948 175.297613,28.24 176.561613,28.24 Z M191.477348,28.24 C192.277348,28.24 193.053348,28.108 193.805348,27.844 C194.557348,27.58 195.141348,27.272 195.557348,26.92 C196.005348,26.568 196.229348,26.176 196.229348,25.744 C196.229348,25.424 196.113348,25.144 195.881348,24.904 C195.649348,24.664 195.357348,24.544 195.005348,24.544 C194.749348,24.544 194.477348,24.616 194.189348,24.76 C194.013348,24.856 193.817348,24.972 193.601348,25.108 C193.385348,25.244 193.101348,25.36 192.749348,25.456 C192.397348,25.552 191.925348,25.6 191.333348,25.6 C190.693348,25.6 190.089348,25.444 189.521348,25.132 C188.953348,24.82 188.489348,24.364 188.129348,23.764 C187.929348,23.4306667 187.784903,23.0565926 187.696014,22.6417778 L187.684,22.576 L195.605348,22.576 C195.93449,22.576 196.228368,22.4878367 196.48698,22.3115102 L196.613348,22.216 C196.901348,21.976 197.053348,21.664 197.069348,21.28 C197.069348,20.416 196.905348,19.6 196.577348,18.832 C196.249348,18.064 195.805348,17.388 195.245348,16.804 C194.685348,16.22 194.041348,15.76 193.313348,15.424 C192.585348,15.088 191.813348,14.92 190.997348,14.92 C189.941348,14.92 188.941348,15.192 187.997348,15.736 C187.053348,16.28 186.289348,17.06 185.705348,18.076 C185.121348,19.092 184.829348,20.32 184.829348,21.76 C184.829348,22.992 185.097348,24.096 185.633348,25.072 C186.169348,26.048 186.937348,26.82 187.937348,27.388 C188.937348,27.956 190.117348,28.24 191.477348,28.24 Z M193.997,20.176 L187.708,20.176 L187.737848,20.0335 C187.754348,19.961 187.772223,19.890625 187.791473,19.822375 L187.853348,19.624 C188.029348,19.112 188.269348,18.704 188.573348,18.4 C188.877348,18.096 189.237348,17.88 189.653348,17.752 C190.069348,17.624 190.517348,17.56 190.997348,17.56 C191.493348,17.56 191.961348,17.668 192.401348,17.884 C192.841348,18.1 193.209348,18.392 193.505348,18.76 C193.801348,19.128 193.965348,19.544 193.997348,20.008 L193.997348,20.008 L193.997,20.176 Z" id="CodyPearce" fill="#4D4848" fill-rule="nonzero"></path>
            <circle id="Oval-Copy" stroke="#4D4848" stroke-width="3" cx="10" cy="18" r="8.5"></circle>
            <line x1="10" y1="10" x2="10" y2="32" id="Path-3-Copy" stroke="#4D4848" stroke-width="3" stroke-linecap="round"></line>
            <circle id="Oval-Copy-2" stroke="#4D4848" stroke-width="2" cx="10" cy="3" r="2"></circle>
        </g>
    </g>
</svg>